<svg xmlns="http://www.w3.org/2000/svg" viewBox="0 0 200 200" width="200" height="200">
  <defs>
    <linearGradient id="g10" x1="0%" y1="0%" x2="100%" y2="100%">
      <stop offset="0%" style="stop-color:#145a32"/>
      <stop offset="100%" style="stop-color:#1e8449"/>
    </linearGradient>
  </defs>
  <circle cx="100" cy="100" r="100" fill="url(#g10)"/>
  <!-- Shovel handle -->
  <rect x="94" y="55" width="12" height="90" rx="6" fill="#c8a96e"/>
  <!-- Shovel blade -->
  <path d="M72,120 Q72,156 100,156 Q128,156 128,120 L120,108 L80,108 Z" fill="#9BA3B5"/>
  <rect x="80" y="105" width="40" height="10" rx="4" fill="#c8a96e"/>
  <!-- Leaves sprouting from handle -->
  <path d="M94,82 Q70,68 62,48 Q80,55 94,75 Z" fill="#2ecc71"/>
  <path d="M106,75 Q130,58 140,40 Q122,50 106,68 Z" fill="#27ae60"/>
  <path d="M94,95 Q64,88 52,72 Q72,78 94,90 Z" fill="#2ecc71" opacity="0.8"/>
  <!-- LL text -->
  <text x="100" y="186" font-family="Arial Black,sans-serif" font-size="20" font-weight="900" fill="white" text-anchor="middle" opacity="0.85">LANDSCAPING</text>
</svg>