<svg xmlns="http://www.w3.org/2000/svg" viewBox="0 0 200 200" width="200" height="200">
  <defs>
    <filter id="fs"><feDropShadow dx="0" dy="3" stdDeviation="4" flood-color="#00000066"/></filter>
    <linearGradient id="fg1" x1="0%" y1="0%" x2="0%" y2="100%">
      <stop offset="0%" style="stop-color:#2E7D32"/>
      <stop offset="100%" style="stop-color:#1B5E20"/>
    </linearGradient>
    <linearGradient id="fg2" x1="0%" y1="0%" x2="0%" y2="100%">
      <stop offset="0%" style="stop-color:#43A047"/>
      <stop offset="100%" style="stop-color:#2E7D32"/>
    </linearGradient>
  </defs>
  <!-- Outer card -->
  <rect x="10" y="35" width="180" height="130" rx="18" fill="url(#fg1)" filter="url(#fs)"/>
  <rect x="16" y="41" width="168" height="118" rx="14" fill="none" stroke="rgba(255,255,255,0.15)" stroke-width="1.5"/>
  <!-- Sun -->
  <circle cx="155" cy="78" r="22" fill="#FDD835" opacity="0.95"/>
  <circle cx="155" cy="78" r="16" fill="#FFEE58"/>
  <!-- Sun rays -->
  <g stroke="#FDD835" stroke-width="2.5" stroke-linecap="round" opacity="0.7">
    <line x1="155" y1="50" x2="155" y2="44"/>
    <line x1="155" y1="106" x2="155" y2="112"/>
    <line x1="127" y1="78" x2="121" y2="78"/>
    <line x1="183" y1="78" x2="189" y2="78"/>
    <line x1="135" y1="58" x2="131" y2="54"/>
    <line x1="175" y1="98" x2="179" y2="102"/>
    <line x1="175" y1="58" x2="179" y2="54"/>
    <line x1="135" y1="98" x2="131" y2="102"/>
  </g>
  <!-- Hills -->
  <ellipse cx="70" cy="130" rx="65" ry="30" fill="#388E3C"/>
  <ellipse cx="130" cy="138" rx="55" ry="24" fill="#2E7D32"/>
  <!-- Grass blades -->
  <g fill="#66BB6A">
    <path d="M30,130 Q32,110 34,130Z"/>
    <path d="M42,128 Q45,106 48,128Z"/>
    <path d="M55,126 Q57,108 59,126Z"/>
    <path d="M68,125 Q71,105 74,125Z"/>
    <path d="M82,126 Q84,107 86,126Z"/>
    <path d="M95,127 Q97,108 99,127Z"/>
    <path d="M108,128 Q110,110 112,128Z"/>
  </g>
  <!-- Text -->
  <text x="56" y="80" font-family="Arial Black,sans-serif" font-size="24" font-weight="900" fill="white" text-anchor="middle" letter-spacing="0.5">FRANK'S</text>
  <text x="56" y="98" font-family="Arial,sans-serif" font-size="11" font-weight="700" fill="#A5D6A7" text-anchor="middle" letter-spacing="1.5">LANDSCAPING</text>
</svg>